# xmcd CD database file
#
# Track frame offsets:
#	150
#	20762
#	36803
#	50999
#	82961
#	94843
#	118257
#	133626
#	149027
#	172694
#	188346
#	201727
#	220439
#	236700
#	274941
#	289907
#
# Disc length: 4012 seconds
#
# Revision: 2
# Processed by: cddbd v1.4PL0 Copyright (c) Steve Scherf et al.
# Submitted via: CDex 1.40Release
#
DISCID=000faa10
DTITLE=B.B. King - The collection
DYEAR=1900
DGENRE=Rock
TTITLE0=Hummingbird
TTITLE1=Ain't Nobody Home
TTITLE2=Ask Me No Questions
TTITLE3=Sweet Sixteen
TTITLE4=Never Trust A Woman
TTITLE5=Don't Answer The Door
TTITLE6=Chains And Things
TTITLE7=Philadelphia
TTITLE8=Ghetto Woman
TTITLE9=Help The Poor
TTITLE10=I Got Some Help I Don't Need
TTITLE11=Guess Who
TTITLE12=Who Are You
TTITLE13=To Know You Is To Love You
TTITLE14=I Like To Live The Love
TTITLE15=How Blue Can You Get
EXTD=ID3G: 17
EXTT0=
EXTT1=
EXTT2=
EXTT3=
EXTT4=
EXTT5=
EXTT6=
EXTT7=
EXTT8=
EXTT9=
EXTT10=
EXTT11=
EXTT12=
EXTT13=
EXTT14=
EXTT15=
PLAYORDER=
